<?xml version="1.0" encoding="UTF-8"?><svg version="1.1" width="534px" height="17px" viewBox="0 0 534.0 17.0" xmlns="http://www.w3.org/2000/svg" xmlns:xlink="http://www.w3.org/1999/xlink"><g transform="translate(2.0 2.5276052029621496)"><path d="M0,12.6773332 C8.36267343,4.22577774 20.2013433,0 35.5160096,0 C50.830676,0 62.119934,4.22577774 69.3837838,12.6773332" stroke="#969696" stroke-width="2" fill="none" stroke-linejoin="bevel"></path><g transform="translate(65.80000000000018 0.0)"><path d="M0,12.6773332 C8.36267343,4.22577774 20.2013433,0 35.5160096,0 C50.830676,0 62.119934,4.22577774 69.3837838,12.6773332" stroke="#969696" stroke-width="2" fill="none" stroke-linejoin="bevel"></path></g><g transform="translate(131.5999999999999 0.0)"><path d="M0,12.6773332 C8.36267343,4.22577774 20.2013433,0 35.5160096,0 C50.830676,0 62.119934,4.22577774 69.3837838,12.6773332" stroke="#969696" stroke-width="2" fill="none" stroke-linejoin="bevel"></path><g transform="translate(65.80000000000018 0.0)"><path d="M0,12.6773332 C8.36267343,4.22577774 20.2013433,0 35.5160096,0 C50.830676,0 62.119934,4.22577774 69.3837838,12.6773332" stroke="#969696" stroke-width="2" fill="none" stroke-linejoin="bevel"></path></g></g><g transform="translate(263.1999999999998 0.0)"><path d="M0,12.6773332 C8.36267343,4.22577774 20.2013433,0 35.5160096,0 C50.830676,0 62.119934,4.22577774 69.3837838,12.6773332" stroke="#969696" stroke-width="2" fill="none" stroke-linejoin="bevel"></path><g transform="translate(65.80000000000018 0.0)"><path d="M0,12.6773332 C8.36267343,4.22577774 20.2013433,0 35.5160096,0 C50.830676,0 62.119934,4.22577774 69.3837838,12.6773332" stroke="#969696" stroke-width="2" fill="none" stroke-linejoin="bevel"></path></g><g transform="translate(131.5999999999999 0.0)"><path d="M0,12.6773332 C8.36267343,4.22577774 20.2013433,0 35.5160096,0 C50.830676,0 62.119934,4.22577774 69.3837838,12.6773332" stroke="#969696" stroke-width="2" fill="none" stroke-linejoin="bevel"></path><g transform="translate(65.80000000000018 0.0)"><path d="M0,12.6773332 C8.36267343,4.22577774 20.2013433,0 35.5160096,0 C50.830676,0 62.119934,4.22577774 69.3837838,12.6773332" stroke="#969696" stroke-width="2" fill="none" stroke-linejoin="bevel"></path></g></g></g></g></svg>